<mxfile host="app.diagrams.net" modified="2024-01-11T11:09:11.453Z" agent="Mozilla/5.0 (Windows NT 10.0; Win64; x64) AppleWebKit/537.36 (KHTML, like Gecko) Chrome/120.0.0.0 Safari/537.36" version="22.1.18" etag="fKCu1jD8O_eSw9-aqPd6" type="github">
  <diagram name="Page-1" id="UIapUIfGKB8rbN5l0cHZ">
    <mxGraphModel>
      <root>
        <mxCell id="0" />
        <mxCell id="1" parent="0" />
      </root>
    </mxGraphModel>
  </diagram>
</mxfile>
